<?xml version="1.0" encoding="UTF-8"?>
<!DOCTYPE svg PUBLIC "-//W3C//DTD SVG 1.1//EN" "http://www.w3.org/Graphics/SVG/1.1/DTD/svg11.dtd">
<!-- Creator: CorelDRAW 2020 (64-Bit) -->
<svg xmlns="http://www.w3.org/2000/svg" xml:space="preserve" width="6.4666mm" height="6.4666mm" version="1.1" style="shape-rendering:geometricPrecision; text-rendering:geometricPrecision; image-rendering:optimizeQuality; fill-rule:evenodd; clip-rule:evenodd"
viewBox="0 0 846.66 846.66"
 xmlns:xlink="http://www.w3.org/1999/xlink"
 xmlns:xodm="http://www.corel.com/coreldraw/odm/2003">
 <defs>
  <style type="text/css">
   <![CDATA[
    .fil0 {fill:red}
   ]]>
  </style>
 </defs>
 <g id="Capa_x0020_1">
  <metadata id="CorelCorpID_0Corel-Layer"/>
  <g id="Eliminar">
   <path class="fil0" d="M287.2 784.28l229.82 0c27.29,0 57.31,-25.79 69.09,-52.17 3.95,-8.85 7.04,-20.95 7.04,-33.84l-31.01 1.41c-30.58,0 -62.16,-14.84 -84.29,-34.15 -3.97,-3.47 -6.19,-4.21 -9.78,-8.55 -24.25,-29.34 -39.88,-55.87 -39.88,-98.29 0,-88.45 81.66,-156.23 166.78,-139.99 7.57,1.45 14.92,4.47 22.15,4.63 0,-35.25 8.75,-89.65 9.87,-125.48 0.26,-8.28 1.41,-10.71 1.41,-18.33l-452.59 0c0.12,5.36 1.08,9.79 1.44,16.89l2.88 35.18c0.38,4.92 0.88,12 1.54,18.21 1.11,10.57 1.46,23.45 2.99,35.08 1.4,10.67 1.51,24.38 3.24,36.23l11.88 141.81c0.73,23.42 4.91,47.07 5.64,70.49l6 71.55c4,32.36 20.52,54.43 45.87,69.75 6.59,3.98 19.87,9.57 29.91,9.57z"/>
   <path class="fil0" d="M165.94 217.48l0 31.02 472.33 0c0,-21.18 3.61,-45.05 -11.64,-58.85 -5.64,-5.1 -16.03,-10.24 -26.43,-10.24l-394.78 0c-21.5,0 -39.48,16.68 -39.48,38.07z"/>
   <path class="fil0" d="M593.15 558.69c9.24,13.79 35.25,29.59 35.25,40.89 0,9.14 -7.78,16.92 -16.92,16.92 -10.35,0 -31.61,-29.04 -40.88,-35.25 -13.38,8.95 -35.53,47.92 -53.22,30.66 -13.99,-13.65 6.55,-29.82 11.27,-34.54 5.74,-5.74 13.21,-14.55 19.39,-18.68 -4.14,-6.18 -12.94,-13.64 -18.69,-19.39 -8.58,-8.59 -16.56,-12.53 -16.56,-24.32 0,-8.14 6.88,-14.1 16.92,-14.1 7.73,0 35,28.56 39.48,35.25 12.66,-8.48 36.81,-48.91 54.62,-30.66 17.26,17.69 -21.7,39.85 -30.66,53.22zm-132.53 -8.46c0,24.88 -0.14,35.06 11.26,57.82 26.5,52.92 93.83,75.9 144.79,50.29 26.12,-13.12 40.43,-27.41 53.58,-53.57 25.53,-50.81 2.63,-118.21 -49.35,-144.33 -55.5,-27.89 -121.6,-6.03 -149,48.9 -5.38,10.78 -11.28,24.91 -11.28,40.89z"/>
   <path class="fil0" d="M301.3 121.6l0 26.79 33.83 0c0,-13.31 -1.82,-30.83 7.34,-40.6 4.68,-4.99 10.25,-10.15 19.45,-10.15l80.37 0c29.2,0 26.79,34.72 26.79,50.75l33.84 0c0,-31.65 3.53,-45.1 -19.37,-68.05 -9.44,-9.46 -24.28,-17.95 -42.67,-17.95l-77.55 0c-17.66,0 -33.6,8.9 -42.68,17.95 -9.05,9.02 -19.35,23.95 -19.35,41.26z"/>
  </g>
 </g>
</svg>
