<?xml version="1.0" encoding="UTF-8"?>
<!DOCTYPE svg PUBLIC "-//W3C//DTD SVG 1.1//EN" "http://www.w3.org/Graphics/SVG/1.1/DTD/svg11.dtd">
<!-- Creator: CorelDRAW 2020 (64-Bit) -->
<svg xmlns="http://www.w3.org/2000/svg" xml:space="preserve" width="6.4666mm" height="6.4666mm" version="1.1" style="shape-rendering:geometricPrecision; text-rendering:geometricPrecision; image-rendering:optimizeQuality; fill-rule:evenodd; clip-rule:evenodd"
viewBox="0 0 846.66 846.66"
 xmlns:xlink="http://www.w3.org/1999/xlink"
 xmlns:xodm="http://www.corel.com/coreldraw/odm/2003">
 <defs>
  <style type="text/css">
   <![CDATA[
    .fil1 {fill:#0a65b1}
    .fil0 {fill:#0a65b1}
   ]]>
  </style>
 </defs>
 <g id="Capa_x0020_1">
  <metadata id="CorelCorpID_0Corel-Layer"/>
  <g id="Editar">
   <path class="fil0" d="M331.99 613.25c3.49,0.93 7.04,5.86 9.6,8.43 8.84,8.83 60.81,59.96 63.32,63.71 -3.77,0.31 -50.66,16.55 -60.38,18.82l-31.17 -30.77 18.63 -60.19zm41.56 -35.28c-4.63,0 -10.2,-4.85 -10.2,-10.98 0,-5.98 22.56,-26.09 27.64,-31.17 10.13,-10.12 19.68,-19.67 29.8,-29.8l118.79 -118.79c4.51,-4.5 48.13,-49.89 52.88,-51.47 7.75,-2.58 15.22,5 13.09,12.3 -1.23,4.17 -3.48,5.7 -6.38,8.59l-208.57 208.57c-3.88,3.89 -10.41,12.75 -17.05,12.75zm-191.33 -69.79c0,18.78 25.14,14.11 37.64,14.11l155.26 0c-2.48,3.7 -42.08,42.48 -49.99,50.38 -9.63,9.62 -8.59,12.96 -13.42,27.35l-14.71 45.67c-2.04,6.13 -29.31,90.4 -29.31,93.02 0,18.12 20.96,8.57 29.9,5.58 6.24,-2.08 12.06,-3.75 18.42,-5.88l112.33 -35.87c13.87,-4.21 15.61,-8.75 28.13,-21.27l246.6 -246.6c4.24,-4.24 7.91,-7.91 12.15,-12.16 2.73,-2.72 11.13,-10.01 11.96,-13.13l-118.99 -119.38c-4.25,2.9 -75.13,74.74 -80.76,80.37 -39.61,39.61 -81.33,80.51 -120.36,120.37 -5.35,5.45 -3.69,4.11 -15.49,4.11l-181.91 0c-5.88,0 -14.95,-0.69 -19.22,1.17 -4.87,2.11 -8.23,8.07 -8.23,12.16z"/>
   <path class="fil0" d="M627.6 270.59l119.77 120.17 30.58 -30.97c10.39,-10.39 23.72,-19.6 23.72,-39.01l0 0c0,-14.78 -9.31,-20.68 -19.8,-31.17 -8.82,-8.82 -17.06,-17.06 -25.87,-25.88l-38.82 -38.81c-8.56,-8.62 -12.23,-8.43 -23.72,-8.43 -15.49,0 -27.53,15.38 -35.87,23.72 -4.76,4.76 -27.87,27.21 -29.99,30.38z"/>
   <path class="fil0" d="M182.22 283.14c0,10.39 6.69,14.9 17.26,14.9l274.43 0c24.71,0 19.92,-27.45 3.92,-27.45l-282.28 0c-8.62,0 -13.33,8.67 -13.33,12.55z"/>
   <path class="fil0" d="M182.22 390.56c0,6.48 5.69,13.33 11.77,13.33l285.41 0c14.35,0 16.76,-26.66 -0.78,-26.66l-284.63 0c-6.14,0 -11.77,6.68 -11.77,13.33z"/>
   <path class="fil1" d="M113 108.54l414.39 0c37.41,0 68.01,30.6 68.01,68.01l0 76.6 -42.56 42.03 0 -94.09c0,-31.61 -25.87,-57.48 -57.49,-57.48l-350.31 0c-31.62,0 -57.49,25.87 -57.49,57.48l0 499.19c0,31.62 25.87,57.49 57.49,57.49l350.31 0c31.62,0 57.49,-25.87 57.49,-57.49l0 -75.02 42.56 -42.03 0 18.87 0 122.73c0,37.4 -30.6,68 -68.01,68l-414.39 0c-37.41,0 -68.01,-30.6 -68.01,-68l0 -548.28c0,-37.41 30.6,-68.01 68.01,-68.01z"/>
   <rect class="fil1" x="136.87" y="53.82" width="31.88" height="124.85" rx="15.94" ry="15.94"/>
   <rect class="fil1" x="246.84" y="53.82" width="31.88" height="124.85" rx="15.94" ry="15.94"/>
   <rect class="fil1" x="346.72" y="53.82" width="31.88" height="124.85" rx="15.94" ry="15.94"/>
   <rect class="fil1" x="455.64" y="53.82" width="31.88" height="124.85" rx="15.94" ry="15.94"/>
  </g>
 </g>
</svg>
